<?xml version="1.0" encoding="UTF-8" standalone="no"?>
<!-- Created with Inkscape (http://www.inkscape.org/) -->

<svg
   width="500"
   height="500"
   viewBox="0 0 132.29166 132.29167"
   version="1.1"
   id="svg1"
   xml:space="preserve"
   inkscape:version="1.4.3 (0d15f75042, 2025-12-25)"
   sodipodi:docname="icon.svg"
   xmlns:inkscape="http://www.inkscape.org/namespaces/inkscape"
   xmlns:sodipodi="http://sodipodi.sourceforge.net/DTD/sodipodi-0.dtd"
   xmlns="http://www.w3.org/2000/svg"
   xmlns:svg="http://www.w3.org/2000/svg"><sodipodi:namedview
     id="namedview1"
     pagecolor="#ffffff"
     bordercolor="#666666"
     borderopacity="1.0"
     inkscape:showpageshadow="2"
     inkscape:pageopacity="0.0"
     inkscape:pagecheckerboard="true"
     inkscape:deskcolor="#d1d1d1"
     inkscape:document-units="px"
     inkscape:zoom="1.7688351"
     inkscape:cx="222.46279"
     inkscape:cy="248.75128"
     inkscape:window-width="1238"
     inkscape:window-height="1408"
     inkscape:window-x="0"
     inkscape:window-y="0"
     inkscape:window-maximized="1"
     inkscape:current-layer="layer3"
     showguides="true"
     showgrid="false" /><defs
     id="defs1" /><g
     inkscape:groupmode="layer"
     id="layer2"
     inkscape:label="Background"><path
       style="fill:#858585;stroke:none;stroke-width:0.264583px;stroke-linecap:butt;stroke-linejoin:miter;stroke-opacity:1;fill-opacity:1"
       d="m 118.84549,47.709608 7.6183,0.857059 3.04732,20.093268 -9.6181,5.142352 -0.0952,-4.285292 5.04712,-2.47595 -1.14274,-13.903399 v 0 l -4.76144,-1.237972 z"
       id="path15"
       inkscape:label="handle_r" /><path
       style="fill:#858585;stroke:none;stroke-width:0.264583px;stroke-linecap:butt;stroke-linejoin:miter;stroke-opacity:1;fill-opacity:1"
       d="m 13.238167,47.6574 -7.8574927,1.537338 -1.964373,19.729137 9.0531977,5.039046 0.34163,-4.612008 L 7.772085,67.471948 8.9677906,53.89215 13.579797,51.329925 Z"
       id="path16"
       inkscape:label="handle_l" /><ellipse
       style="display:inline;fill:none;fill-opacity:1;stroke:#cbd7e5;stroke-width:3.17603;stroke-linecap:round;stroke-linejoin:round;stroke-dasharray:none;stroke-opacity:1"
       id="path13"
       cx="66.165672"
       cy="60.281609"
       rx="50.982357"
       ry="49.102676"
       inkscape:label="rim" /><path
       style="fill:#a5a5a5;fill-opacity:1;stroke:none;stroke-width:0.256116px;stroke-linecap:butt;stroke-linejoin:miter;stroke-opacity:1"
       d="m 21.29706,92.311855 c 10.622061,19.855435 27.277717,24.959365 44.63537,27.893685 16.589268,-4.35952 34.68573,-3.811 45.10186,-28.272807 C 80.200728,120.3359 50.463817,115.91304 21.29706,92.311855 Z"
       id="path2"
       sodipodi:nodetypes="cccc"
       inkscape:label="outer" /><circle
       style="fill:#858585;fill-opacity:1;stroke:none;stroke-width:3.175;stroke-linecap:round;stroke-linejoin:round;stroke-dasharray:none;stroke-opacity:1"
       id="path14"
       cx="66.181305"
       cy="60.198822"
       r="17.199665"
       inkscape:label="center" /><path
       style="fill:#40742f;fill-opacity:1;stroke:none;stroke-width:0.264583px;stroke-linecap:butt;stroke-linejoin:miter;stroke-opacity:1"
       d="m 66.263784,77.164691 0.2575,28.926029 c 22.616573,-3.19306 44.788166,-7.207875 47.380326,-47.380322 l -29.612703,0.17167 C 83.028432,70.215337 76.173951,75.37591 66.263784,77.164691 Z"
       id="path3"
       inkscape:label="starch"
       sodipodi:nodetypes="ccccc" /><path
       style="fill:#b23306;fill-opacity:1;stroke:none;stroke-width:0.264583px;stroke-linecap:butt;stroke-linejoin:miter;stroke-opacity:1"
       d="m 18.140754,59.221404 30.810485,-0.09598 c 0.394943,10.27465 6.980912,15.498728 17.084945,17.852805 l 0.383931,29.274761 C 41.312912,104.09692 20.903727,94.89382 18.140754,59.221404 Z"
       id="path4"
       sodipodi:nodetypes="ccccc"
       inkscape:label="seafood" /><path
       style="fill:#523308;fill-opacity:1;stroke:none;stroke-width:0.264583px;stroke-linecap:butt;stroke-linejoin:miter;stroke-opacity:1"
       d="M 17.948788,59.221404 49.047222,59.029438 C 50.278935,48.265484 57.346257,44.946963 65.940201,43.576202 L 65.364304,13.917509 c -28.409452,0.6764 -41.996962,18.315689 -47.415516,45.303895 z"
       id="path5"
       inkscape:label="greens"
       sodipodi:nodetypes="ccccc" /><path
       style="fill:#e5b528;fill-opacity:1;stroke:none;stroke-width:0.264583px;stroke-linecap:butt;stroke-linejoin:miter;stroke-opacity:1"
       d="M 84.080955,58.741489 113.64366,58.549523 C 109.18571,34.446025 97.487608,16.216621 66.036184,14.013492 l 0.191966,29.370745 c 7.987782,1.498022 14.459717,5.690885 17.852805,15.357252 z"
       id="path6"
       inkscape:label="meats"
       sodipodi:nodetypes="ccccc" /></g><g
     inkscape:groupmode="layer"
     id="layer3"
     inkscape:label="Objects"><path
       style="fill:#388d32;fill-opacity:1;stroke:none;stroke-width:0.264583px;stroke-linecap:butt;stroke-linejoin:miter;stroke-opacity:1"
       d="m 18.879839,57.734001 3.921899,-19.062253 8.938282,-5.746038 4.46914,0.456036 -4.925176,-5.198798 13.681043,-10.123971 11.400869,-3.00983 0.364829,7.387763 8.755866,1.550519 -0.892601,7.43328 -6.312746,9.62242 1.459309,3.830691 -7.843798,5.381212 -6.019657,-10.580008 h -5.381212 l -0.182411,4.195519 7.11414,2.553796 0.63845,11.400869 z"
       id="path12"
       sodipodi:nodetypes="ccccccccccccccccccc"
       inkscape:label="greens" /><path
       style="fill:#fcedd0;fill-opacity:1;stroke:none;stroke-width:0.264583px;stroke-linecap:butt;stroke-linejoin:miter;stroke-opacity:1"
       d="m 71.291685,78.536775 0.289806,9.49107 10.795182,6.448128 10.768007,4.58663 12.19893,-10.237799 -1.37657,-8.04205 5.36137,-8.259402 -0.43471,-8.911461 -14.490177,-4.781761 -6.810386,11.084988 -0.362254,3.839898 -5.868522,-2.825586 z"
       id="path9"
       sodipodi:nodetypes="ccccccccccccc"
       inkscape:label="starch" /><path
       style="fill:#d1140d;fill-opacity:1;stroke:none;stroke-width:0.264583px;stroke-linecap:butt;stroke-linejoin:miter;stroke-opacity:1"
       d="m 66.694843,23.723668 5.460918,-5.460919 11.100887,-0.984756 4.207595,7.967571 10.026607,-0.08952 12.65144,15.441946 2.70061,16.484095 -12.29282,0.377665 -4.052725,-4.576545 -4.143865,4.505685 -6.884787,0.713137 C 82.816021,53.100797 80.750249,50.65187 80.750249,50.65187 L 77.169065,46.99972 66.605318,43.597837 Z"
       id="path10"
       inkscape:label="meats"
       sodipodi:nodetypes="ccccccccccccccc" /><path
       style="fill:#ee6c0d;fill-opacity:1;stroke:none;stroke-width:0.264583px;stroke-linecap:butt;stroke-linejoin:miter;stroke-opacity:1"
       d="m 38.491287,58.579331 7.128015,4.665613 3.110407,7.646415 -2.851206,7.646419 10.756823,-3.110407 5.443212,4.536008 0.129601,5.184013 c -13.57166,-3.860041 -17.351103,7.973493 -16.459236,9.07202 l -3.888008,2.073606 -5.572812,-3.88801 5.443212,-11.145625 -5.961613,-2.073603 2.332805,-6.220815 -2.980807,-2.721607 -5.443214,2.980806 v 4.27681 l 6.091216,6.609614 -5.313614,3.758409 -8.94242,-9.979221 0.777602,-10.627225 6.998416,-7.257616 z"
       id="path11"
       inkscape:label="seafood"
       sodipodi:nodetypes="cccccccccccccccccccccc" /><path
       style="fill:#89afd5;stroke:none;stroke-width:0.264583px;stroke-linecap:butt;stroke-linejoin:miter;stroke-opacity:1;fill-opacity:1"
       d="m 45.748903,94.219412 2.111761,-6.536563 7.509629,-3.807698 6.716358,1.110578 3.596161,4.600972 -3.596161,3.754813 -6.663473,2.062504 -0.158655,3.807698 5.447125,1.216354 -1.903849,4.07212 -9.096171,-2.27404 z"
       id="path36"
       inkscape:label="fish" /><path
       style="fill:#68529d;stroke:none;stroke-width:0.264583px;stroke-linecap:butt;stroke-linejoin:miter;stroke-opacity:1;fill-opacity:1"
       d="m 56.174101,100.39987 c -3.957141,-1.023884 -5.446538,-5.129168 -3.14119,-8.114746 3.436761,-3.084526 7.357286,-2.536593 10.7698,-0.336557 -8.364948,1.536244 -9.170269,4.735605 -7.62861,8.451303 z"
       id="path37"
       sodipodi:nodetypes="cccc" /><circle
       style="fill:#1a1a1a;fill-opacity:1;stroke:none;stroke-width:0.264583;stroke-linecap:round;stroke-linejoin:round"
       id="path38"
       cx="61.509365"
       cy="88.025337"
       r="0.78529787" /><g
       id="g38"
       inkscape:label="logo"
       transform="matrix(0.60231614,0,0,0.56296875,26.599558,25.145631)"
       style="fill:#cbd7e5;fill-opacity:1;stroke:none;stroke-opacity:1"><path
         id="path3-9"
         d="m 53.541275,60.642019 c 0.950595,0 1.722402,0.771878 1.722402,1.722614 0,0.950384 -0.771807,1.722261 -1.722402,1.722261 -0.950595,0 -1.722367,-0.771877 -1.722367,-1.722261 0,-0.950736 0.771772,-1.722614 1.722367,-1.722614 z"
         style="fill:#cbd7e5;fill-opacity:1;fill-rule:evenodd;stroke:none;stroke-width:0.352778;stroke-opacity:1" /><path
         id="path4-4"
         d="m 78.562496,60.642019 c 0.950384,0 1.722261,0.771878 1.722261,1.722614 0,0.950384 -0.771877,1.722261 -1.722261,1.722261 -0.950736,0 -1.722614,-0.771877 -1.722614,-1.722261 0,-0.950736 0.771878,-1.722614 1.722614,-1.722614 z"
         style="fill:#cbd7e5;fill-opacity:1;fill-rule:evenodd;stroke:none;stroke-width:0.352778;stroke-opacity:1" /><path
         id="path9-7"
         d="m 66.424825,75.346149 c 0.95638,0.705203 1.876072,1.599142 2.568222,2.567164 0.460022,0.642761 0.708025,1.321153 0.852311,2.095147 0.14993,0.804333 0.208491,1.69157 -0.111478,2.463447 -0.835378,2.015772 -3.230386,3.066345 -5.201002,1.954742 -0.816681,-0.461081 -1.446037,-1.283758 -1.7907,-2.144536 -0.270934,-0.676628 -0.45085,-1.420636 -0.426509,-2.151945 0.02963,-0.891822 0.390172,-1.725436 0.887942,-2.452863 0.586669,-0.856545 1.464733,-1.626306 2.445808,-2.008011"
         style="fill:#cbd7e5;fill-opacity:1;fill-rule:evenodd;stroke:none;stroke-width:0.352778;stroke-opacity:1" /><path
         id="path10-8"
         d="m 65.962333,49.292806 c 0.958497,-0.786341 1.950508,-1.493308 2.698397,-2.500841 0.268464,-0.362303 0.537986,-0.724606 0.66675,-1.162756 0.411692,-1.399822 -0.03916,-2.884664 -0.921455,-3.999089 -0.631825,-0.79763 -1.473553,-1.317625 -2.522009,-1.09855 -0.888647,0.185562 -1.965325,0.613834 -2.587977,1.30175 -0.666397,0.735542 -0.858309,1.655234 -0.820914,2.621492 0.0695,1.787878 1.034344,3.532364 2.566458,4.492977 0.268817,0.168628 0.573969,0.209198 0.866775,0.316795"
         style="fill:#cbd7e5;fill-opacity:1;fill-rule:evenodd;stroke:none;stroke-width:0.352778;stroke-opacity:1" /><path
         id="path11-4"
         d="m 66.345097,59.555817 c 0.313619,-0.772584 0.606072,-1.530703 0.991305,-2.271536 0.850548,-1.635831 1.921228,-3.10762 3.282245,-4.354689 0.989541,-0.906286 2.003072,-1.877483 3.447697,-1.746603 0.437444,0.03986 0.881591,0.147461 1.298575,0.282223 0.573263,0.185208 1.095375,0.446616 1.510947,0.892175 1.5367,1.647119 1.356783,4.733924 -0.153106,6.330949 -0.915811,0.968728 -2.228497,1.484489 -3.462513,1.905 -0.903112,0.307622 -1.78047,0.6731 -2.649361,1.066095 -0.255764,0.115358 -0.74542,0.28575 -0.750712,0.618772 -0.006,0.356658 0.42792,0.590197 0.698148,0.724605 0.756355,0.375356 1.571977,0.585259 2.330802,0.946856 1.227314,0.584552 2.356203,1.434041 3.363031,2.337858 0.610305,0.548217 1.244952,1.260475 1.484136,2.064455 0.206022,0.69215 0.05327,1.495425 -0.03422,2.198511 -0.134761,1.08197 -0.524227,2.154061 -1.542344,2.698397 -0.697089,0.372534 -1.423458,0.02893 -2.130072,-0.07796 -1.027642,-0.155575 -2.042936,-0.326673 -2.968625,-0.835731 -1.063978,-0.585611 -1.916994,-1.542344 -2.661355,-2.478616 -0.529167,-0.665339 -1.032581,-1.36525 -1.470378,-2.094089 -0.17145,-0.28575 -0.264231,-0.737659 -0.658989,-0.636764 -1.019528,0.261055 -1.514122,1.642533 -2.087386,2.396772 -0.474839,0.624769 -0.857603,1.309158 -1.363486,1.911703 -0.280458,0.333727 -0.582436,0.6604 -0.914047,0.944033 -1.686948,1.443919 -4.536934,2.859264 -6.579658,1.248833 -0.731344,-0.576439 -1.074385,-1.52153 -1.266049,-2.408061 -0.131692,-0.609247 -0.250825,-1.226255 -0.216747,-1.852436 0.02738,-0.503061 0.107421,-1.009297 0.266277,-1.488369 0.660647,-1.991431 2.487295,-3.123494 4.207474,-4.1275 0.828958,-0.484011 1.659432,-0.8382 2.567834,-1.132417 0.204506,-0.06597 0.411516,-0.140405 0.608472,-0.226483 0.05122,-0.02258 0.175683,-0.06456 0.181327,-0.128764 0.05503,-0.626533 -0.754062,-0.881944 -1.182334,-1.122891 -0.508529,-0.286103 -0.933344,-0.714023 -1.389909,-1.073503 -2.046641,-1.611842 -4.001982,-3.908425 -3.774087,-6.686197 0.07973,-0.97155 0.530577,-2.267655 1.407159,-2.814108 0.442595,-0.27552 0.984356,-0.322086 1.494261,-0.330906 1.304184,-0.02222 2.368585,0.349956 3.336043,1.220964 1.469178,1.322917 2.601242,2.861733 3.430623,4.65843 0.519289,1.125362 0.84208,2.333978 1.425222,3.427589 0.0071,0.01341 -0.0762,0.01341 -0.0762,0.01341 z"
         style="fill:#cbd7e5;fill-opacity:1;fill-rule:evenodd;stroke:none;stroke-width:0.352778;stroke-opacity:1" /><path
         id="path12-5"
         d="m 57.830312,41.503826 c 1.612794,1.34373 1.766746,3.212041 0.364772,4.766733 -1.746814,1.937103 -4.217035,2.90195 -6.110287,4.684889 -3.365888,3.169355 -4.365943,7.791097 -4.212943,12.269257 0.148273,4.339872 1.157852,8.973256 4.712758,11.855097 1.236345,1.002242 2.523772,2.100086 3.917915,2.875139 0.761506,0.423333 2.015031,0.693914 2.497314,1.461558 0.680861,1.084086 0.184961,2.752019 -0.512269,3.716514 -0.431659,0.597253 -1.350998,0.928864 -2.03835,0.581025 -1.049655,-0.530578 -0.99628,-1.520825 -1.19126,-2.494139 -0.132503,-0.661458 -0.424603,-1.311628 -0.887095,-1.806575 -0.983932,-1.052689 -2.144606,-1.938161 -3.087017,-3.031772 -1.517615,-1.760714 -2.804759,-3.999441 -3.700004,-6.141861 -0.838411,-2.0066 -0.954087,-4.319058 -1.003194,-6.469591 -0.07694,-3.367617 0.129752,-6.992761 1.478351,-10.126486 0.445699,-1.035402 1.102324,-1.963914 1.735596,-2.889955 0.609847,-0.891822 1.241319,-1.793875 2.013832,-2.554817 1.115518,-1.098902 2.434201,-2.076802 3.34331,-3.367969 0.61214,-0.869597 0.413596,-2.089855 0.975854,-2.980619 0.374403,-0.592667 1.035579,-0.452614 1.632796,-0.3429 0.01376,0.0025 0.06992,-0.0035 0.06992,-0.0035 z"
         style="fill:#cbd7e5;fill-opacity:1;fill-rule:evenodd;stroke:none;stroke-width:0.352778;stroke-opacity:1" /><path
         id="path13-0"
         d="m 73.186869,42.479256 c -0.134761,0.470253 -0.221545,0.940153 -0.264584,1.427692 -0.03351,0.381 -0.0508,0.765175 0.0071,1.144411 0.297392,1.961092 2.237669,2.042936 3.637491,2.880078 1.17722,0.703791 2.164292,1.651705 3.02895,2.711802 1.570567,1.925814 2.802467,4.318353 3.374672,6.738056 0.267406,1.130652 0.334081,2.293761 0.455436,3.44558 0.1397,1.326444 0.327378,2.764367 0.207787,4.098219 -0.267759,2.986264 -1.194506,6.127044 -2.985559,8.567561 -0.764116,1.0414 -1.776588,1.897591 -2.710038,2.779536 -0.8763,0.827617 -1.882775,1.598789 -2.868084,2.291997 -0.620888,0.437092 -1.355372,0.807156 -1.832327,1.413933 -0.783167,0.99695 -0.582436,3.774722 1.11125,3.701697 0.814211,-0.03493 1.33103,-0.836789 1.686983,-1.473552 0.841022,-1.505656 1.507772,-3.016603 2.602441,-4.372681 1.412875,-1.75013 3.005667,-3.369027 4.107039,-5.350933 2.24155,-4.034366 2.864556,-8.58661 2.503664,-13.12686 -0.19932,-2.508956 -0.721078,-5.098697 -2.263422,-7.157508 -1.118306,-1.492603 -2.412647,-2.847975 -3.694642,-4.199467 -0.583494,-0.614891 -1.2446,-1.189919 -1.764947,-1.86055 -0.502708,-0.647347 -0.997655,-1.377244 -1.348669,-2.121252 -0.251531,-0.532342 -0.390172,-1.146528 -0.74542,-1.624542 -0.574675,-0.773994 -1.803399,-1.13418 -2.235199,-0.0568 -0.01094,0.02681 -0.0099,0.14358 -0.0099,0.14358 z"
         style="fill:#cbd7e5;fill-opacity:1;fill-rule:evenodd;stroke:none;stroke-width:0.352778;stroke-opacity:1" /></g></g><g
     inkscape:groupmode="layer"
     id="layer4"
     inkscape:label="Shading"
     style="display:inline"><g
       inkscape:groupmode="layer"
       id="layer6"
       inkscape:label="seafood"><path
         style="display:inline;fill:#ff9a00;fill-opacity:1;stroke:none;stroke-width:0.264583px;stroke-linecap:butt;stroke-linejoin:miter;stroke-opacity:1"
         d="m 40.652188,82.51109 c 3.207747,0.655476 5.507641,2.508757 7.79872,5.068083 l 7.395609,-4.47738 c -1.932581,-3.719843 -4.79309,-5.820804 -7.712852,-5.803461 -3.78806,0.557141 -5.133546,3.280947 -7.481477,5.212758 z"
         id="path17"
         sodipodi:nodetypes="ccccc" /><path
         style="fill:#f3ba46;fill-opacity:1;stroke:none;stroke-width:0.264583px;stroke-linecap:butt;stroke-linejoin:miter;stroke-opacity:1"
         d="m 21.422377,70.093756 c 0.984109,-1.118432 5.084489,-1.630508 7.641063,2.071577 0.300515,0.435166 1.581208,-0.86217 1.36327,-1.344022 -1.42819,-3.157668 -5.94762,-4.191703 -8.376133,-3.111126 -0.652237,0.290215 -1.099784,2.919523 -0.6282,2.383571 z"
         id="path7"
         sodipodi:nodetypes="sssss" /><path
         style="fill:#d12024;stroke:none;stroke-width:0.264583px;stroke-linecap:butt;stroke-linejoin:miter;stroke-opacity:1;fill-opacity:1"
         d="m 25.617407,78.52759 0.687434,-0.710508 c 2.306033,2.006873 4.799042,4.562207 7.105076,7.366843 l -2.355895,0.598321 C 29.325342,82.988224 27.617489,80.98334 25.617407,78.52759 Z"
         id="path8"
         sodipodi:nodetypes="ccccc" /><path
         style="fill:#f3ba46;fill-opacity:1;stroke:none;stroke-width:0.264583px;stroke-linecap:butt;stroke-linejoin:miter;stroke-opacity:1"
         d="m 27.024286,61.916402 c 1.450366,-0.340293 5.14047,1.462169 5.075836,5.960761 -0.0076,0.528792 1.789206,0.381174 1.837194,-0.145491 0.324308,-3.559285 -2.413763,-6.864277 -5.018799,-7.392589 -0.699646,-0.141891 -2.589245,1.740388 -1.894231,1.577319 z"
         id="path7-3"
         sodipodi:nodetypes="sssss" /><path
         style="fill:#f3ba46;fill-opacity:1;stroke:none;stroke-width:0.264583px;stroke-linecap:butt;stroke-linejoin:miter;stroke-opacity:1"
         d="m 38.809606,75.369662 c 0.756,-1.283676 3.187521,-1.173044 5.23598,0.485847 0.410982,0.332824 1.742686,-0.718001 1.463248,-1.166992 -0.629035,-1.01071 -3.2284,-2.435294 -6.530909,-1.778065 -0.700159,0.139338 -0.530593,3.074347 -0.168319,2.45921 z"
         id="path7-3-6"
         sodipodi:nodetypes="sssss" /><path
         style="fill:#f3ba46;fill-opacity:1;stroke:none;stroke-width:0.264583px;stroke-linecap:butt;stroke-linejoin:miter;stroke-opacity:1"
         d="m 38.172969,58.656453 c -1.073259,0.874689 -2.653502,4.810493 -2.61004,8.215712 0.0101,0.791537 1.833559,0.716934 1.924046,-0.257983 0.510699,-5.502314 1.330504,-5.094794 2.554867,-7.549035 0.318687,-0.638809 -1.315488,-0.859694 -1.868873,-0.408694 z"
         id="path7-3-1"
         sodipodi:nodetypes="sssss" /><path
         style="fill:#f3ba46;fill-opacity:1;stroke:none;stroke-width:0.264583px;stroke-linecap:butt;stroke-linejoin:miter;stroke-opacity:1"
         d="m 46.770105,64.588048 c -2.356393,0.164735 -4.83491,-0.318455 -9.944437,4.524233 -0.574548,0.544543 1.058314,1.274846 1.82225,0.662431 3.709151,-2.97347 6.089617,-3.758547 8.932553,-3.45374 0.709821,0.0761 -0.09822,-1.78271 -0.810366,-1.732924 z"
         id="path7-3-1-3"
         sodipodi:nodetypes="sssss" /><path
         style="fill:#f3ba46;fill-opacity:1;stroke:none;stroke-width:0.264583px;stroke-linecap:butt;stroke-linejoin:miter;stroke-opacity:1"
         d="m 41.175408,84.62283 c 4.40647,-0.419727 5.490643,1.197623 6.839477,3.462298 0.270616,0.454362 1.285127,-0.333176 1.1781,-0.851081 -0.240928,-1.165836 -2.374675,-4.223751 -6.860057,-4.150176 -0.713793,0.01171 -1.868191,1.606652 -1.15752,1.538959 z"
         id="path7-3-6-5"
         sodipodi:nodetypes="sssss" /><path
         style="fill:#f3ba46;fill-opacity:1;stroke:none;stroke-width:0.264583px;stroke-linecap:butt;stroke-linejoin:miter;stroke-opacity:1"
         d="m 48.868432,78.17124 c 4.076104,0.598043 5.670058,2.743288 6.545671,5.229531 0.175674,0.498816 1.272557,0.410619 1.322834,-0.115835 0.194609,-2.037764 -1.690954,-5.186424 -6.018812,-6.132325 -0.697427,-0.15243 -2.556018,0.914998 -1.849693,1.018629 z"
         id="path7-3-6-5-9"
         sodipodi:nodetypes="sssss" /></g><g
       inkscape:groupmode="layer"
       id="layer7"
       inkscape:label="greens"><path
         style="fill:#6ddc6e;fill-opacity:1;stroke:none;stroke-width:0.264583px;stroke-linecap:butt;stroke-linejoin:miter;stroke-opacity:1"
         d="m 32.465892,36.996694 c -0.02911,-1.16742 1.078769,-1.35214 1.692309,-1.09508 2.39838,1.00488 3.763255,5.27126 1.916683,8.325901 -1.692309,-7.615391 -3.579886,-6.063401 -3.608992,-7.230821 z"
         id="path18"
         sodipodi:nodetypes="zscz" /><path
         style="fill:#6ddc6e;fill-opacity:1;stroke:none;stroke-width:0.264583px;stroke-linecap:butt;stroke-linejoin:miter;stroke-opacity:1"
         d="m 31.567124,28.056528 5.129817,4.83895 c 1.577728,0.65224 3.878213,-0.98718 2.987987,-2.6178 l -5.15626,-5.10337 z"
         id="path19"
         sodipodi:nodetypes="ccccc" /><path
         style="fill:#6ddc6e;fill-opacity:1;stroke:none;stroke-width:0.264583px;stroke-linecap:butt;stroke-linejoin:miter;stroke-opacity:1"
         d="m 36.932464,23.093058 1.794965,-1.04707 c 2.019363,2.63514 3.351961,4.72086 4.636998,6.76853 0.386417,1.18418 -1.140551,1.67655 -1.720176,0.97227 z"
         id="path20"
         sodipodi:nodetypes="ccccc" /><path
         style="fill:#6ddc6e;fill-opacity:1;stroke:none;stroke-width:0.264583px;stroke-linecap:butt;stroke-linejoin:miter;stroke-opacity:1"
         d="m 44.523677,19.166568 5.908432,11.44292 0.261765,-6.02062 -3.290773,-6.73113 z"
         id="path21" /><path
         style="fill:#6ddc6e;fill-opacity:1;stroke:none;stroke-width:0.264583px;stroke-linecap:butt;stroke-linejoin:miter;stroke-opacity:1"
         d="m 52.227074,15.240078 1.869757,-0.11218 c 0.06874,0.94343 0.369809,2.6066 0.523531,3.25338 0.187618,0.78939 0.112186,4.33783 0.224372,8.75046 0.01663,1.18387 -1.4544,1.38067 -1.607992,0.67311 -0.0081,-4.32903 -0.03614,-8.6495 -1.009668,-12.56477 z"
         id="path22"
         sodipodi:nodetypes="ccsccc" /><path
         style="fill:#e0ffe0;fill-opacity:1;stroke:none;stroke-width:0.264583px;stroke-linecap:butt;stroke-linejoin:miter;stroke-opacity:1"
         d="m 44.523677,36.857788 c -0.405382,-3.44497 0.74052,-4.56302 3.437708,-3.35414 l 2.732489,2.80289 0.652132,-3.26437 c 1.657054,-2.29167 3.208339,-2.29167 4.653854,0 l 4.080193,12.243042 -7.359044,5.670394 z"
         id="path24"
         sodipodi:nodetypes="cccccccc" /></g><g
       inkscape:groupmode="layer"
       id="layer8"
       inkscape:label="starch"><path
         style="fill:#ebab73;fill-opacity:1;stroke:none;stroke-width:0.264583px;stroke-linecap:butt;stroke-linejoin:miter;stroke-opacity:1"
         d="m 72.256707,79.211522 9.441705,7.354491 c 0.124227,3.010615 -0.106296,5.442745 -0.09349,8.208234 L 71.078191,88.136608 Z"
         id="path25"
         sodipodi:nodetypes="ccccc" /><path
         style="display:inline;fill:#ebab73;fill-opacity:1;stroke:none;stroke-width:0.264583px;stroke-linecap:butt;stroke-linejoin:miter;stroke-opacity:1"
         d="m 85.367825,85.971254 10.020515,6.605145 c 0.206728,1.709056 0.01211,4.180984 -1e-5,5.796247 l -2.24365,0.689957 -8.376571,-3.980731 z"
         id="path25-2"
         sodipodi:nodetypes="cccccc" /><path
         style="fill:#ebab73;fill-opacity:1;stroke:none;stroke-width:0.264583px;stroke-linecap:butt;stroke-linejoin:miter;stroke-opacity:1"
         d="m 88.473642,69.310324 14.495688,5.112633 c 0.20555,2.299674 -0.077,4.30787 -0.18311,6.365115 l -7.39788,-4.091558 -2.060039,1.720176 -5.048344,-3.739514 z"
         id="path26"
         sodipodi:nodetypes="ccccccc" /><path
         style="fill:#e6a35d;fill-opacity:1;stroke:none;stroke-width:0.268462px;stroke-linecap:butt;stroke-linejoin:miter;stroke-opacity:1"
         d="m 81.696203,86.566011 3.011373,-1.822678 -0.599438,8.732231 -2.549958,1.466961 z"
         id="path27"
         sodipodi:nodetypes="ccccc" /><path
         style="fill:#e6a35d;fill-opacity:1;stroke:none;stroke-width:0.264583px;stroke-linecap:butt;stroke-linejoin:miter;stroke-opacity:1"
         d="m 102.86355,74.383293 5.43183,-10.584426 1.03303,8.724485 -4.69321,9.131588 -1.78288,-0.827205 z"
         id="path28"
         sodipodi:nodetypes="cccccc" /><path
         style="fill:#e6a35d;fill-opacity:1;stroke:none;stroke-width:0.264583px;stroke-linecap:butt;stroke-linejoin:miter;stroke-opacity:1"
         d="m 95.126574,92.426817 8.986976,-9.457668 1.16581,5.480294 -9.89103,9.923202 z"
         id="path29"
         sodipodi:nodetypes="ccccc" /><ellipse
         style="fill:#eca603;fill-opacity:1;stroke:none;stroke-width:0.264583;stroke-linecap:round;stroke-linejoin:round"
         id="path30"
         cx="97.866058"
         cy="65.732559"
         rx="1.8697568"
         ry="1.9071521" /><ellipse
         style="fill:#eca603;fill-opacity:1;stroke:none;stroke-width:0.264583;stroke-linecap:round;stroke-linejoin:round"
         id="path31"
         cx="80.1278"
         cy="79.819"
         rx="0.89748329"
         ry="0.91618055" /><ellipse
         style="fill:#eca603;fill-opacity:1;stroke:none;stroke-width:0.264583;stroke-linecap:round;stroke-linejoin:round"
         id="path32"
         cx="94.155449"
         cy="86.359093"
         rx="1.4974588"
         ry="1.4783493" /><ellipse
         style="fill:#c47635;fill-opacity:1;stroke:none;stroke-width:0.264583;stroke-linecap:round;stroke-linejoin:round"
         id="path34"
         cx="78.708328"
         cy="88.464745"
         rx="0.44874164"
         ry="0.62730253" /><ellipse
         style="fill:#c47635;fill-opacity:1;stroke:none;stroke-width:0.297502;stroke-linecap:round;stroke-linejoin:round"
         id="path35"
         cx="22.064552"
         cy="126.83237"
         rx="1.0118663"
         ry="0.91384977"
         transform="rotate(-45.576946)" /></g><g
       inkscape:groupmode="layer"
       id="layer9"
       inkscape:label="meats"><path
         style="display:inline;baseline-shift:baseline;overflow:visible;opacity:1;vector-effect:none;fill:#fc6f5d;stroke-linecap:round;stroke-linejoin:round;enable-background:accumulate;stop-color:#000000;stop-opacity:1;fill-opacity:1"
         d="m 75.985662,17.316618 c -3.885194,-0.0983 -7.646369,2.42093 -7.897895,5.92688 -0.07066,0.98494 1.231922,2.59347 1.231922,3.57954 0,2.28892 -2.173231,5.08453 -0.625306,6.26922 0.630599,0.48263 1.864624,2.23661 3.360218,2.29142 1.869334,0.0685 3.295331,-2.58212 4.491981,-2.86851 3.73705,-0.89436 8.88331,-2.97506 9.35647,-6.88877 0.24855,-2.05584 0.18611,-5.00303 -1.42341,-6.51533 -1.80013,-1.6914 -6.0496,-1.73262 -8.49398,-1.79445 z m 0.22437,1.84966 c 1.82627,0 4.98517,0.0963 6.30493,1.31511 0.72218,0.66697 1.15406,1.73244 1.21872,2.90063 0.0963,1.73933 -0.12903,3.80066 -0.65256,4.52548 -2.02662,2.80582 -2.13738,3.87987 -5.97361,3.87987 -2.84939,0 -5.002414,-1.65965 -6.190908,-3.85485 -0.411616,-0.76028 -0.906509,-1.0792 -0.906509,-1.96956 0,-1.41435 -0.271832,-3.08181 0.685678,-4.16132 1.385711,-1.56226 3.245624,-2.63536 5.514259,-2.63536 z"
         id="path41"
         sodipodi:nodetypes="ssssssssssssssssss" /><path
         style="display:inline;fill:none;fill-opacity:1;stroke:#e8745e;stroke-width:1.5875;stroke-linecap:butt;stroke-linejoin:miter;stroke-dasharray:none;stroke-opacity:1"
         d="m 71.447404,44.687741 c 0,0 -0.269347,-3.689166 0.475961,-5.076936 0.747685,-1.39219 2.128506,-2.0896 3.278854,-3.17308 1.072106,-1.00978 2.022151,-2.48327 3.225967,-3.33174 2.151375,-1.51632 5.539247,-1.799298 7.37288,-3.687532 1.328366,-1.367921 2.523653,-2.680968 4.420409,-3.346128 1.815962,-0.63683 3.997603,0.05818 5.839223,0.616471 0.75863,0.22998 3.354655,2.02048 4.964602,3.90373 1.24321,1.45427 3.10769,1.118449 3.15773,1.138459"
         id="path42"
         sodipodi:nodetypes="csssssssc" /><ellipse
         style="display:inline;fill:#e1f3cf;fill-opacity:1;stroke:none;stroke-width:3.73621;stroke-linecap:round;stroke-linejoin:round;stroke-opacity:1"
         id="path39"
         cx="77.209846"
         cy="24.67127"
         rx="4.3102574"
         ry="3.8816571" /><ellipse
         style="display:inline;fill:#d1140d;fill-opacity:1;stroke:none;stroke-width:0.264583;stroke-linecap:round;stroke-linejoin:round;stroke-opacity:1"
         id="path40"
         cx="77.171974"
         cy="24.7535"
         rx="1.8697568"
         ry="1.7949666" /><path
         style="fill:none;stroke:#e8745e;stroke-width:1.5875;stroke-linecap:butt;stroke-linejoin:miter;stroke-dasharray:none;stroke-opacity:1"
         d="m 77.528985,46.697198 c 0,0 0.887195,-3.323516 1.850967,-4.706739 2.414071,-3.464721 5.218145,-2.543822 6.504818,-3.966353 1.188148,-1.313603 2.472937,-3.063049 3.83166,-4.319261 1.51414,-1.399903 3.5722,-1.868249 3.5722,-1.868249"
         id="path43"
         sodipodi:nodetypes="csssc" /><path
         id="path39-6"
         style="display:inline;fill:#e1f3cf;stroke-width:3.73621;stroke-linecap:round;stroke-linejoin:round"
         d="m 97.661904,33.275253 c 0,2.14378 -1.609602,5.03414 -2.670832,2.90329 -3.17376,-6.372608 0.05273,-5.148941 -5.949683,-2.90329 -2.007861,0.75119 1.929768,-3.881657 4.310257,-3.881657 2.38049,0 4.310258,1.737877 4.310258,3.881657 z"
         sodipodi:nodetypes="sssss" /><path
         style="fill:none;stroke:#e8745e;stroke-width:1.5875;stroke-linecap:butt;stroke-linejoin:miter;stroke-dasharray:none;stroke-opacity:1"
         d="m 86.607137,57.28935 c 0,0 1.771739,-3.98182 2.842031,-5.53448 1.813445,-2.630743 4.925908,-3.789294 7.553818,-3.589933 3.233854,0.24533 7.320614,3.617675 6.992894,3.814305"
         id="path44"
         sodipodi:nodetypes="cssc" /><path
         style="fill:none;stroke:#e8745e;stroke-width:1.5875;stroke-linecap:butt;stroke-linejoin:miter;stroke-dasharray:none;stroke-opacity:1"
         d="m 95.581971,45.921228 c 0,0 3.161555,-4.093617 5.983219,-4.412624 3.74097,-0.422939 7.62862,2.617658 7.62862,2.617658"
         id="path45"
         sodipodi:nodetypes="csc" /><path
         style="fill:none;stroke:#e8745e;stroke-width:1.5875;stroke-linecap:butt;stroke-linejoin:miter;stroke-dasharray:none;stroke-opacity:1"
         d="m 104.10806,51.867055 c 0,0 1.50401,-0.886858 4.00128,-0.635717 3.10426,0.312185 4.97355,4.936158 4.97355,4.936158"
         id="path46"
         sodipodi:nodetypes="csc" /><path
         style="fill:none;stroke:#e8745e;stroke-width:1.5875;stroke-linecap:butt;stroke-linejoin:miter;stroke-dasharray:none;stroke-opacity:1"
         d="m 81.705558,52.123186 c 0,0 2.393238,-3.655651 3.951054,-5.12955 1.522254,-1.440253 3.161106,-2.300819 4.781261,-3.629986 1.145136,-0.939464 2.302672,-2.044763 3.38371,-3.057327 1.588815,-1.488179 3.081057,-3.521378 5.169603,-4.135369 1.349824,-0.396823 2.714104,-0.02833 4.029604,0.470646 1.52585,0.578753 4.03867,2.76724 4.03867,2.76724"
         id="path47"
         sodipodi:nodetypes="csssssc" /></g></g><g
     inkscape:label="Outline"
     inkscape:groupmode="layer"
     id="layer1"><path
       style="fill:#000000;stroke-width:0.9385"
       d="m 58.674391,120.45397 c -3.574064,-0.49943 -5.758975,-1.01851 -9.38842,-2.23048 C 31.603722,112.31898 20.026517,99.391198 14.839538,79.758466 14.373241,77.993535 13.904923,76.466975 13.798829,76.366105 13.692736,76.265244 12.33219,76.050271 10.775395,75.888402 7.5358769,75.551562 6.4454083,75.224741 4.9301368,74.136564 2.8492802,72.642199 1.8847402,69.751364 2.1638187,65.845586 2.8328808,56.481856 3.1085826,53.240135 3.3368714,52.05271 3.8067044,49.608897 4.9861548,47.937535 7.0256885,46.825396 7.40002,46.621281 8.8236702,46.433403 10.611742,46.352148 l 2.965277,-0.134749 1.179709,-3.103886 c 5.086829,-13.383775 13.871447,-23.343936 26.039268,-29.523807 5.04762,-2.563622 9.601956,-4.0447388 15.891905,-5.1682154 3.124524,-0.5580856 4.339108,-0.6463551 9.187506,-0.6677002 6.176256,-0.027188 9.001833,0.2903009 14.186761,1.5940779 7.43259,1.8689617 16.405766,6.4410107 21.695572,11.0544047 2.75615,2.403723 6.106,5.929824 8.05443,8.478198 2.98974,3.910331 6.23074,9.951718 7.93439,14.790087 l 0.89676,2.546841 3.00496,0.128265 c 2.79467,0.119291 3.09001,0.180624 4.22038,0.876322 1.3263,0.816297 2.67907,2.601921 3.06575,4.046721 0.31455,1.175376 0.97327,9.227121 1.17212,14.327905 0.13097,3.359937 0.0899,4.180937 -0.26242,5.241671 -0.53318,1.60523 -1.74869,3.022614 -3.33037,3.883471 -1.19444,0.650099 -1.73385,0.760814 -6.63066,1.361003 l -1.48987,0.182613 -0.56661,2.233631 c -2.95763,11.659453 -7.12482,19.693358 -13.826,26.655079 -8.271492,8.59319 -19.552569,14.11957 -31.473073,15.41805 -3.248061,0.3538 -10.945477,0.28817 -13.853121,-0.11814 z m 15.146969,-2.58995 c 3.946547,-0.56496 7.180935,-1.37501 10.401838,-2.60513 2.579565,-0.9852 7.660477,-3.48705 9.587204,-4.72077 3.67355,-2.35225 9.285308,-7.56108 12.133018,-11.261853 1.30701,-1.69855 3.38643,-4.980954 3.38643,-5.345547 0,-0.128453 -1.42656,1.151427 -3.17013,2.844155 -4.25804,4.133835 -5.99509,5.501175 -10.240811,8.061135 -4.451759,2.68422 -6.725712,3.75172 -10.687543,5.01721 -6.496287,2.07504 -10.263598,2.74506 -16.624534,2.95667 -5.072315,0.16877 -8.527171,-0.11674 -14.148918,-1.16927 -4.587408,-0.85887 -10.196917,-2.71637 -14.034389,-4.64725 -5.012465,-2.5221 -10.480692,-6.49765 -14.865197,-10.807427 -1.3569,-1.333793 -2.506468,-2.385709 -2.554574,-2.337599 -0.155127,0.155122 2.38265,4.212589 3.758321,6.008897 1.78385,2.329279 6.432496,6.821579 9.18314,8.874289 5.594841,4.17521 13.334713,7.44762 20.980257,8.87044 3.503143,0.65192 3.666982,0.66485 8.949935,0.70608 3.380415,0.0261 5.47917,-0.0909 7.945953,-0.44403 z m -13.53295,-1.91393 c -3.827897,-0.47466 -4.88521,-0.88265 -4.16192,-1.60594 0.402494,-0.40249 7.206794,0.26751 7.383111,0.72701 0.344559,0.89788 -0.721838,1.18885 -3.221191,0.87893 z m 15.022818,-6.24532 c 8.644517,-1.47915 15.756196,-4.3865 22.472146,-9.18687 5.174106,-3.698304 8.665636,-7.228925 12.327636,-12.465611 4.24006,-6.0633 6.89297,-13.035257 7.93466,-20.852611 0.4462,-3.348385 0.38304,-10.457038 -0.12168,-13.691996 C 115.721,39.386771 107.70448,26.826351 95.768201,18.793622 88.430121,13.855331 80.486051,10.986563 71.595498,10.064358 68.060033,9.6976266 60.651357,9.9080108 57.556985,10.463008 c -8.988074,1.612074 -16.797638,4.928426 -23.638954,10.038339 -10.273667,7.67361 -17.738538,20.389004 -19.56702,33.32977 -0.468053,3.312561 -0.532992,10.368651 -0.123392,13.407358 1.371657,10.175954 5.773906,19.310525 12.961866,26.895593 8.284923,8.742582 19.516976,14.271732 32.293845,15.897142 3.895794,0.49561 12.000596,0.32844 15.827898,-0.32641 z M 62.453255,107.65015 C 44.239327,106.33738 28.439162,96.064652 21.052456,80.732627 13.955991,66.003036 15.372114,48.173041 24.756484,34.096313 c 3.573455,-5.360248 7.704275,-9.47476 13.155816,-13.103875 4.976453,-3.312853 9.382507,-5.254972 15.479125,-6.822962 4.410924,-1.134447 8.214883,-1.598219 13.108937,-1.598219 10.191903,0 19.432508,2.782503 27.723506,8.348022 7.199202,4.832621 12.770342,11.240623 16.597202,19.090338 3.51634,7.212735 4.80506,12.771574 4.80682,20.73397 0.002,8.992918 -1.88087,16.181751 -6.12855,23.399168 -9.21202,15.652524 -27.720007,24.900345 -47.046085,23.507395 z m 9.754086,-2.96728 c 2.796509,-0.33784 6.631551,-1.08393 9.063351,-1.76325 2.907223,-0.81214 8.442572,-3.301727 8.442572,-3.797159 0,-0.05672 -1.353632,-1.017203 -3.008075,-2.134462 -2.710051,-1.830106 -3.067931,-2.004104 -3.612193,-1.756112 -1.02913,0.468899 -2.3642,0.3146 -3.562961,-0.411836 -2.463028,-1.49253 -7.856274,-5.251889 -8.440099,-5.883155 -0.620188,-0.670601 -0.620779,-0.676046 -0.620779,-5.767083 v -5.095846 l -1.205939,0.115966 c -0.663269,0.06374 -1.304065,0.270895 -1.423986,0.460235 -0.35211,0.556005 -0.28648,25.884252 0.06805,26.238732 0.166835,0.16684 0.676187,0.24409 1.179479,0.17879 0.4872,-0.0632 1.891477,-0.23633 3.120619,-0.38482 z m -7.724208,-0.13277 c 0.248776,-0.64829 0.172449,-10.738381 -0.08243,-10.895898 -0.128211,-0.07923 -0.882457,0.01694 -1.676101,0.213879 -0.79364,0.196891 -2.195183,0.468222 -3.114546,0.602996 -2.006925,0.294176 -3.221939,0.988745 -3.777441,2.159372 -0.350658,0.738935 -0.363387,0.967838 -0.08625,1.548019 0.312712,0.654581 0.414788,0.685828 2.645606,0.809703 2.050055,0.113837 2.375206,0.196601 2.791223,0.710367 0.868171,1.072122 0.379069,3.007292 -1.01002,3.996412 -1.200199,0.85461 -0.588351,1.1506 2.509661,1.21411 1.296448,0.0266 1.681799,-0.0503 1.800253,-0.35894 z m -5.803776,-1.72041 c 0.819223,-0.42364 1.341517,-1.22815 1.139346,-1.75499 -0.09651,-0.25148 -0.568618,-0.35307 -1.641113,-0.35307 -1.780128,0 -2.945048,-0.43119 -3.676271,-1.360799 -1.255825,-1.596503 -0.909891,-3.504531 0.936323,-5.164433 1.345582,-1.209792 2.222644,-1.534493 5.109689,-1.891695 2.470448,-0.305646 3.132212,-0.550192 3.805606,-1.406271 0.695362,-0.884012 0.667823,-1.573857 -0.108513,-2.71782 -0.861031,-1.268811 -1.461167,-1.760535 -3.17644,-2.60272 -1.920589,-0.942972 -3.985062,-1.159392 -6.182577,-0.648114 -3.36045,0.781853 -5.8414,2.48911 -7.165687,4.931059 -0.786959,1.451124 -0.840125,1.698443 -0.840125,3.908121 0,2.029886 0.09131,2.553618 0.654339,3.754464 1.645292,3.508878 4.912917,5.663378 8.607579,5.675398 1.141664,0.004 2.081026,-0.13291 2.537825,-0.36915 z m -10.185722,-1.1468 c 0,-0.15415 -0.401367,-0.72455 -0.891931,-1.26753 -0.85561,-0.947061 -2.335509,-3.702641 -2.335922,-4.349517 -2.91e-4,-0.462995 -0.372351,-0.379892 -1.389522,0.310389 -0.503129,0.341415 -1.182114,0.620779 -1.50887,0.620779 -0.914342,0 -2.177964,-0.614855 -2.744921,-1.335623 -0.281586,-0.357966 -0.709552,-0.650868 -0.951046,-0.650868 -0.694057,0 -2.454353,-1.138649 -2.82185,-1.825329 -0.858172,-1.603511 0.719107,-5.774763 3.626631,-9.591006 0.866206,-1.136936 1.22399,-1.789266 1.017492,-1.855167 -0.175162,-0.05593 -0.955176,-0.146304 -1.73336,-0.200904 -1.601257,-0.112346 -3.025354,-0.927276 -3.742789,-2.141792 -0.77136,-1.305808 -0.576744,-1.952707 1.060532,-3.525228 1.240902,-1.191816 1.489867,-1.570236 1.489867,-2.264501 0,-1.146039 -0.581418,-1.874144 -1.747269,-2.188071 -1.248203,-0.33609 -2.649099,0.0121 -3.739766,0.929996 -0.77427,0.651503 -1.955052,2.79177 -1.959866,3.552419 -9.39e-4,0.210589 0.51226,0.881006 1.141317,1.489868 1.36133,1.317613 4.365942,4.855556 4.774827,5.622376 0.790535,1.482565 -0.0075,3.315444 -1.613824,3.705659 -0.387325,0.09409 -1.123589,0.545618 -1.636122,1.003351 -1.060193,0.94683 -1.213788,0.973073 -2.676137,0.457138 -0.584759,-0.206329 -1.110694,-0.327619 -1.16874,-0.269588 -0.366214,0.366195 2.498733,3.269556 6.567827,6.655857 3.611588,3.005547 6.386596,4.750212 10.252017,6.445562 2.269393,0.99533 2.731425,1.10896 2.731425,0.67173 z m 47.514277,-6.335018 c 2.540549,-1.906717 7.008278,-6.116738 7.499778,-7.067174 0.22965,-0.44407 0.35932,-1.445407 0.35932,-2.774539 0,-2.422909 2.4e-4,-2.422565 -2.97974,-4.204769 -4.01493,-2.401168 -5.7089,-3.230782 -6.275452,-3.073371 -0.304193,0.08455 -2.508547,1.861328 -4.898549,3.948452 l -4.345444,3.794783 -0.06839,3.748831 -0.06844,3.748822 0.937493,0.740326 c 0.51562,0.40719 2.044866,1.421571 3.39832,2.254196 l 2.46083,1.513869 0.949187,-0.533465 c 0.522047,-0.2934 1.886036,-1.236594 3.031064,-2.095961 z M 43.501518,94.297505 c 0.253882,-0.358982 1.03079,-1.844064 1.726462,-3.300163 2.1165,-4.430023 4.641203,-6.650416 8.729488,-7.67729 2.078373,-0.522042 5.046382,-0.561963 6.636903,-0.08925 0.451911,0.13431 0.603988,0.03388 0.823487,-0.543353 0.468802,-1.233081 0.07057,-2.331892 -1.343574,-3.707585 -1.706381,-1.659902 -2.770682,-1.956027 -6.435491,-1.790524 -2.294693,0.103625 -3.068667,0.245292 -4.387415,0.803131 -3.145396,1.330491 -5.76392,3.395264 -8.220683,6.482211 -1.311383,1.647749 -3.711057,6.307357 -3.711057,7.205986 0,0.540855 0.578096,1.343385 0.967695,1.343385 0.287864,0 1.165878,-1.031907 1.585105,-1.862921 0.510159,-1.011284 1.320186,-1.704938 1.783391,-1.527189 0.509183,0.195391 0.480927,0.769478 -0.115032,2.337444 -0.619756,1.630606 -0.623294,2.167415 -0.01829,2.77241 0.60061,0.60061 1.359715,0.429453 1.979021,-0.446248 z m 39.126242,-1.547517 0.877734,-0.770659 v -2.5505 c 0,-3.965156 -0.169981,-3.655396 3.874749,-7.061657 2.377017,-2.001814 3.574578,-3.17458 3.574578,-3.500588 0,-0.329652 -1.006226,-1.292943 -3.071431,-2.940416 -3.992569,-3.18501 -5.20857,-4.008584 -5.918715,-4.008584 -0.519917,0 -6.900853,4.746099 -8.950327,6.657182 l -0.682851,0.636755 v 4.073083 4.073082 l 0.682851,0.593544 c 1.609663,1.399162 7.994074,5.550637 8.558094,5.56492 0.09767,0.0028 0.572567,-0.342284 1.055318,-0.766162 z M 31.061664,85.760927 c 0.203212,-0.77245 0.264656,-0.807007 1.434889,-0.807007 0.672415,0 1.36225,-0.09036 1.532962,-0.200909 0.834795,-0.540284 -0.09908,-2.244288 -2.746646,-5.011694 -1.399461,-1.462802 -1.639698,-1.615606 -2.534604,-1.612165 -0.543728,0.0018 -1.128779,0.09283 -1.300101,0.201586 -0.655626,0.416289 -1.550832,1.907957 -1.550832,2.584187 0,0.839092 0.702251,2.289364 1.65935,3.426802 0.648005,0.770103 2.675669,2.226212 3.100067,2.226212 0.105928,0 0.28814,-0.363146 0.404915,-0.807012 z m 33.448031,-3.931585 v -3.579819 l -1.117397,-0.27922 c -0.614568,-0.153573 -1.211056,-0.193987 -1.325536,-0.08983 -0.114466,0.104157 0.07555,0.62088 0.422338,1.1483 0.886374,1.348133 1.185061,2.886266 0.845849,4.355801 -0.241225,1.045048 -0.218913,1.251058 0.18363,1.695878 0.853485,0.943098 0.991091,0.49171 0.991091,-3.25111 z m 42.252915,1.448476 c 1.22336,-1.935492 3.29572,-6.316621 4.04004,-8.541002 1.54416,-4.614596 2.77543,-13.435627 2.00498,-14.363972 -0.25681,-0.309422 -1.08935,-0.37118 -4.81182,-0.356757 -4.2355,0.01646 -5.80272,0.182662 -5.20499,0.552075 0.14114,0.08717 1.53045,0.60576 3.08741,1.152341 4.07315,1.429905 3.94823,1.215987 3.94823,6.761658 v 4.482847 l -2.18758,3.635493 c -1.20318,1.999515 -2.33942,3.874028 -2.52497,4.16558 -0.2891,0.454185 -0.27806,0.655099 0.0769,1.403232 0.22787,0.480225 0.41436,1.163541 0.41436,1.518472 0,0.934764 0.39615,0.794438 1.15741,-0.409996 z m -1.09413,-6.893955 2.42307,-3.845496 -0.0637,-4.09238 -0.0637,-4.092379 -6.20778,-2.296827 c -3.414282,-1.263254 -6.445506,-2.29899 -6.736066,-2.301628 -0.675964,-0.0068 -0.557935,-0.164415 -3.792715,5.085572 l -2.753947,4.469599 -9.39e-4,2.488646 -9.39e-4,2.488636 1.853053,1.546418 c 1.019183,0.850524 1.988117,1.546409 2.153171,1.546409 0.165044,0 0.492881,-0.174433 0.728493,-0.387684 1.04573,-0.94637 2.627718,-0.464059 7.308369,2.228089 1.09256,0.628411 2.15391,1.112411 2.35854,1.07555 0.20464,-0.03678 1.46245,-1.797499 2.79514,-3.912525 z M 42.196836,79.21384 c 1.64087,-0.773747 3.155391,-2.42756 4.139519,-4.520231 0.714376,-1.519063 0.779404,-1.867557 0.772826,-4.141738 -0.0084,-2.820485 -0.284797,-3.781705 -1.703422,-5.918956 -1.039077,-1.565436 -3.156048,-3.208625 -5.276576,-4.095657 -1.032771,-0.432008 -1.783729,-0.5386 -3.794575,-0.5386 -2.660625,0 -4.317618,0.400413 -6.742708,1.62927 -2.769161,1.403242 -6.46862,5.917287 -6.969374,8.503967 -0.591085,3.053256 -0.044,6.658112 1.253666,8.260655 l 0.433915,0.535865 1.154522,-0.999232 c 0.634989,-0.549582 1.533713,-1.124376 1.997154,-1.277325 0.755341,-0.24926 0.873714,-0.416966 1.142639,-1.618665 0.38027,-1.699237 2.049729,-4.212469 3.368507,-5.071023 0.857364,-0.558163 1.271712,-0.651846 2.883095,-0.651846 1.688799,0 1.97751,0.07304 2.814641,0.711616 1.537393,1.172833 1.928549,2.016513 1.742323,3.757984 -0.175978,1.645541 -0.8521,2.782627 -2.08907,3.513326 -1.013316,0.598573 -1.123843,1.066969 -0.418287,1.772529 1.134635,1.134637 3.083361,1.189164 5.291208,0.148056 z m 8.096915,-3.347373 c 0.785205,-0.252261 2.154015,-0.533083 3.041806,-0.624046 0.887792,-0.09094 1.614169,-0.219155 1.614169,-0.284882 0,-0.06568 -0.925631,-1.092209 -2.056966,-2.281034 -1.30348,-1.369739 -2.399935,-2.814203 -2.993263,-3.943327 -0.514984,-0.980003 -0.964637,-1.781807 -0.999239,-1.781807 -0.03466,0 -0.05837,1.424678 -0.05283,3.16596 0.0084,2.633362 -0.07987,3.415535 -0.524573,4.649425 -0.5666,1.572075 -0.532692,2.010667 0.133821,1.730493 0.225181,-0.09467 1.051869,-0.378536 1.837074,-0.630782 z m 19.781043,-0.855151 c 5.560575,-1.310715 10.144728,-5.738158 11.557586,-11.162496 0.494731,-1.899409 0.489915,-5.227355 -0.01065,-7.166515 -0.990351,-3.838695 -4.192969,-7.850522 -7.726039,-9.678182 -9.363231,-4.843609 -20.608996,-0.08475 -23.071902,9.763385 -0.55366,2.213826 -0.35953,6.231548 0.406366,8.410429 0.765122,2.176679 2.743428,5.039505 4.482682,6.486931 1.648485,1.371878 4.416103,2.806803 6.437621,3.337712 1.808656,0.474998 5.926692,0.479547 7.924053,0.0082 z m 16.520798,-4.397362 c 0.145345,-1.292546 0.46735,-2.070741 1.926437,-4.655833 0.963547,-1.707136 2.016852,-3.520514 2.340663,-4.029726 1.057506,-1.66299 0.991154,-1.705146 -2.560685,-1.626762 l -3.149451,0.06945 -0.330475,1.986481 c -0.371083,2.230446 -1.11396,4.712969 -1.83088,6.118239 -0.624704,1.224524 -0.607875,1.360722 0.203909,1.650057 0.375584,0.133874 1.185689,0.646532 1.800252,1.139273 0.614569,0.492751 1.186768,0.896978 1.27156,0.898314 0.08475,9.39e-4 0.232707,-0.695973 0.328685,-1.549536 z M 20.813091,69.86902 c 0.304496,-1.447567 1.999509,-4.748592 3.173365,-6.180085 0.631459,-0.770048 1.718222,-1.818596 2.415019,-2.330096 0.742878,-0.545314 1.175254,-1.021666 1.0453,-1.151611 -0.121893,-0.12189 -2.000935,-0.190749 -4.175653,-0.153011 l -3.954036,0.06858 -0.07251,2.073118 c -0.06515,1.862223 0.493521,7.173963 0.853069,8.110924 0.232634,0.60623 0.534719,0.421371 0.715455,-0.437826 z m 27.081913,-6.525481 c -0.217035,-1.049477 -0.39461,-2.163577 -0.39461,-2.475786 0,-0.312229 -0.176757,-0.635478 -0.39278,-0.718372 -0.526601,-0.20207 -2.462414,-0.192487 -2.668123,0.01307 -0.09019,0.09017 0.372733,0.732664 1.02867,1.42779 0.655925,0.695121 1.518048,1.844311 1.915831,2.553768 0.397776,0.709452 0.764257,1.248879 0.814419,1.198718 0.05012,-0.05014 -0.08634,-0.949855 -0.303405,-1.999332 z M 29.974151,56.8682 c 0.526582,-0.202065 0.494973,-0.910286 -0.09197,-2.06081 -0.757772,-1.485361 -1.712853,-2.481136 -3.16669,-3.301637 -0.888787,-0.501599 -1.313645,-0.89178 -1.262881,-1.159797 0.107326,-0.566581 1.249057,-0.638497 2.214086,-0.13946 1.047758,0.541823 3.391931,2.761165 3.847993,3.643081 0.945331,1.828074 1.153049,-0.242235 0.224424,-2.236873 -0.757894,-1.627938 -2.82672,-3.847993 -4.209795,-4.517528 -1.25068,-0.605444 -3.328515,-0.668004 -4.366074,-0.131465 -1.008379,0.521449 -1.983816,2.275268 -1.983816,3.566839 0,1.383111 0.480651,2.441644 1.619661,3.56696 0.787063,0.777593 3.069735,1.928174 3.825377,1.928174 0.116532,0 0.698984,0.221028 1.29432,0.491161 1.173987,0.532709 1.456794,0.581051 2.055378,0.351335 z m 12.72039,-0.862507 c 2.342942,-1.293336 3.213746,-2.034186 3.844709,-3.270977 1.282907,-2.514724 0.658844,-5.061697 -1.612116,-6.579399 -0.992705,-0.663443 -1.447699,-0.807005 -2.557511,-0.807005 -1.550071,0 -2.369633,0.361408 -3.471271,1.530756 -1.249967,1.326784 -1.891956,2.855166 -2.019536,4.807871 -0.114645,1.754739 0.303096,4.587054 0.676544,4.587054 0.110294,0 0.389964,-0.754245 0.621512,-1.676104 0.532786,-2.121203 1.456061,-3.823846 2.666536,-4.91744 1.772289,-1.601154 2.827753,-0.851763 1.346436,0.955982 -1.434757,1.750938 -2.493252,4.852309 -2.050159,6.00698 0.213649,0.556755 0.537374,0.475951 2.554856,-0.637718 z m 49.432122,0.454533 c 0.282414,-0.307291 0.764366,-1.149435 1.071019,-1.871449 0.961079,-2.262823 2.519704,-2.978917 4.539329,-2.085541 1.246191,0.551245 1.850242,1.305582 2.405319,3.003729 0.35594,1.088951 0.41823,1.14283 1.40451,1.214709 1.41603,0.103188 1.82354,-0.502276 1.82354,-2.70938 0,-4.013273 -3.16296,-6.706866 -7.459375,-6.352461 -4.084035,0.336883 -7.276833,2.743569 -8.297508,6.254538 -0.205942,0.708464 -0.599937,1.574763 -0.875527,1.925114 -0.859259,1.092375 -0.697811,1.179437 2.187076,1.179437 2.470017,0 2.729804,-0.0455 3.201617,-0.558696 z m 6.277489,-0.415489 c 0,-0.933149 -1.09232,-2.253851 -1.864102,-2.253851 -0.967337,0 -1.363515,0.267265 -1.871139,1.26229 -0.835152,1.637023 -0.759086,1.71744 1.624594,1.71744 h 2.110647 z m 7.622528,0.13021 c 1.11455,-0.937832 2.41045,-0.947114 3.5062,-0.02507 0.81537,0.686089 2.28235,0.84397 2.73821,0.294688 0.80906,-0.974867 -0.84157,-4.103473 -2.66991,-5.060525 -1.16454,-0.609574 -3.19317,-0.77139 -4.31651,-0.344299 -0.59233,0.225201 -0.59993,0.267972 -0.51967,2.917651 0.0445,1.479008 0.0846,2.717039 0.0884,2.751181 0.0247,0.222252 0.56958,-0.02565 1.17332,-0.533591 z m -1.09203,-6.774443 c 0.49291,-0.258892 1.40759,-0.423902 2.40871,-0.434545 l 1.61402,-0.01718 0.0752,-1.166469 c 0.23329,-3.620933 -2.58615,-6.661856 -6.22625,-6.71535 -2.13479,-0.03136 -3.878363,0.605604 -5.398304,1.972151 -1.307182,1.175272 -2.112388,2.396428 -1.854891,2.813074 0.08194,0.132563 0.896605,0.243476 1.810402,0.246477 2.115145,0.0066 3.244903,0.513677 5.152443,2.311061 0.81138,0.76452 1.50871,1.394112 1.54964,1.399095 0.0411,0.0046 0.43202,-0.178775 0.86908,-0.408351 z M 33.057343,47.459136 c -0.366108,-2.334657 -1.141026,-4.022977 -2.400369,-5.229708 -0.96152,-0.921361 -1.10878,-1.178331 -0.881785,-1.53879 0.467016,-0.741592 1.024512,-0.625941 2.198311,0.456026 1.236058,1.139356 2.37028,3.27459 2.858825,5.381885 0.16633,0.717416 0.377615,1.350874 0.469531,1.407682 0.278424,0.172082 3.249834,-3.990148 3.660136,-5.126961 1.275916,-3.535192 -2.092186,-7.93351 -6.372452,-8.321633 -2.187425,-0.198347 -4.027219,0.476673 -5.617824,2.06118 -1.596864,1.590743 -1.996514,2.79573 -1.593232,4.803828 0.396638,1.975005 1.102397,2.838085 3.279686,4.010777 1.040456,0.560405 2.433009,1.568437 3.094548,2.240073 0.661547,0.671646 1.273899,1.221165 1.360785,1.221165 0.08691,0 0.06166,-0.614482 -0.05613,-1.365524 z m 20.961215,-0.267904 c 0.648706,-0.618921 1.179474,-1.235909 1.179474,-1.371099 0,-0.135182 -0.778054,-1.330238 -1.729002,-2.655679 -0.950954,-1.325451 -2.588698,-3.86252 -3.639442,-5.637945 -1.050744,-1.775424 -2.26959,-3.786743 -2.708545,-4.469598 -0.438945,-0.682855 -1.611861,-2.861784 -2.606482,-4.842066 -1.875946,-3.735022 -2.78215,-5.31519 -3.194264,-5.569886 -0.403704,-0.249502 -2.527995,0.438504 -3.158713,1.023038 -0.326502,0.302587 -0.593638,0.774548 -0.593638,1.0488 0,0.274253 1.592294,2.895354 3.53843,5.824671 1.946146,2.929317 5.202415,8.129653 7.236161,11.556298 2.412821,4.065359 3.836507,6.22827 4.097126,6.224516 0.219688,-0.0028 0.930176,-0.512139 1.578895,-1.13105 z m 4.08361,-3.414295 c -0.06936,-0.296604 -0.466479,-1.421309 -0.882545,-2.499344 -1.672965,-4.334759 -2.170106,-8.279248 -1.757206,-13.942363 0.294998,-4.045917 0.10527,-9.54055 -0.350657,-10.154243 -0.70755,-0.952461 -4.130829,-0.590507 -4.541701,0.48021 -0.08325,0.216953 0.09941,1.926032 0.40593,3.797955 0.405883,2.478811 0.583709,4.783733 0.654509,8.483745 0.108077,5.646691 0.565796,8.37706 1.748808,10.431449 0.819058,1.422341 2.826487,4.299337 3.154746,4.521282 0.13673,0.09244 0.573864,-8.4e-5 0.971392,-0.205652 0.550231,-0.284543 0.692677,-0.5025 0.596705,-0.913037 z m -10.601775,0.529398 c 0,-0.480457 -1.234313,-2.121805 -2.076877,-2.761776 -0.428284,-0.325293 -1.303275,-0.82265 -1.944419,-1.105223 -1.404134,-0.618854 -1.617821,-0.457846 -1.733294,1.305958 l -0.08071,1.233112 1.577213,0.199786 c 0.867463,0.109877 2.096604,0.470298 2.731424,0.800924 1.330828,0.693119 1.526674,0.735097 1.526674,0.327218 z m 38.349316,-0.175351 -9e-6,-3.75e-4 c 0.07633,-0.123449 1.253898,-0.959802 2.616891,-1.858575 3.218393,-2.122235 4.284709,-3.126411 4.852749,-6.973719 1.094915,-7.415813 -5.355817,-0.285726 -6.314085,0.941697 -1.661812,2.128576 -3.741369,2.454228 -3.741369,2.454228 -2.777389,0.877719 -3.25129,2.002622 -3.574939,2.366228 -0.9007,1.011895 -1.553137,2.419284 -1.797794,3.997576 -0.164948,1.064003 -0.149895,1.09243 1.413023,2.669343 0.868853,0.876642 1.694692,1.593138 1.835202,1.592199 0.140505,-9.28e-4 0.504464,-0.367438 0.808774,-0.814466 h -2e-5 m -5.856298,-5.081229 c 1.418353,-3.543376 4.144908,-5.935423 7.305714,-6.409416 1.025431,-0.153771 1.175883,-0.276688 2.035404,-1.66286 4.230479,-6.82268 11.46012,-7.75613 9.663612,0.42597 l 0.59848,-0.427241 c 1.872528,-1.336756 2.763558,-1.719103 4.378386,-1.878798 l 1.68185,-0.166324 -0.0809,-0.993244 c -0.17061,-2.093305 -2.122366,-4.239654 -5.367927,-5.903089 -1.296936,-0.664712 -1.828416,-0.784553 -3.880479,-0.874975 -2.905742,-0.128037 -3.764218,0.225506 -6.189006,2.548831 -1.801511,1.726126 -2.204707,1.967889 -5.214528,3.126703 -1.833489,0.705913 -2.389266,1.076211 -4.232367,2.819909 -1.166948,1.104008 -2.66021,2.442497 -3.318363,2.97442 -1.423889,1.150792 -2.120501,2.545282 -2.12795,4.259814 -0.0058,1.364052 0.292046,1.849922 1.134487,1.849922 0.299209,0 1.031099,0.221028 1.626433,0.491163 1.430507,0.649112 1.663499,0.627912 1.987208,-0.180784 z M 63.143992,42.622678 63.76476,42.45753 63.83318,38.564231 c 0.07686,-4.374446 -0.0092,-4.553887 -1.385911,-2.895724 -1.181028,1.42231 -1.843604,3.097076 -1.980121,5.005031 -0.186002,2.5998 -0.07444,2.681056 2.676874,1.94914 z m 5.959462,-1.460783 c 0,-1.376007 1.331,-3.804541 2.778969,-5.0705 0.659275,-0.576397 2.351857,-2.12143 3.761314,-3.433404 2.398719,-2.232832 2.708658,-2.437643 4.84575,-3.2021 4.209711,-1.505853 5.052418,-2.394768 5.071458,-5.349586 0.02226,-3.456175 -1.427228,-5.029214 -5.1738,-5.614744 -2.12005,-0.331332 -5.299767,-0.139344 -6.874736,0.415088 -1.405028,0.494609 -3.601328,2.393105 -4.072183,3.520015 -0.185226,0.443305 -0.336767,1.354996 -0.336767,2.025978 0,0.703692 -0.269104,1.934911 -0.635898,2.909395 -1.02759,2.730031 -1.135338,3.803745 -0.951578,9.481618 l 0.170804,5.276608 h 0.708343 c 0.656565,0 0.708349,-0.07001 0.708349,-0.958367 z m 28.698301,-0.486723 c 0.05348,-0.04366 0.938254,-0.521537 1.803997,-0.79291 1.895288,-0.594111 3.715698,-0.628664 5.482218,-0.10406 0.72112,0.214146 1.36422,0.336274 1.42909,0.271384 0.22066,-0.220651 -0.61953,-1.526831 -1.57427,-2.447415 -1.72917,-1.667297 -4.51256,-2.412792 -6.370734,-1.706318 -0.856549,0.32566 -2.353145,1.610971 -2.739262,1.848334 0,0 -1.082508,1.104003 -1.715454,1.598016 -0.649644,0.507046 -1.767495,1.728629 -1.767495,1.728629 -0.972114,0.950746 -2.591278,2.252846 -3.598138,2.89355 -2.369728,1.507951 -3.858783,3.058219 -5.28107,5.498127 l -1.148029,1.96942 0.499715,0.993241 c 0.864715,1.718738 1.423638,2.358953 2.059411,2.358953 0.402591,0 0.710105,-0.222751 0.942696,-0.68285 0.189873,-0.375569 0.539041,-1.27586 0.775968,-2.000643 0.565244,-1.729203 2.463905,-3.686582 4.478579,-4.617084 0.819431,-0.378459 1.657482,-0.773341 1.86234,-0.877506 0.375874,-0.191117 0.608707,-0.594867 1.347567,-2.33657 0.222737,-0.525071 0.891927,-1.517356 1.421187,-1.9495 0,0 1.279822,-0.98201 2.091684,-1.644798 z M 58.823173,38.954298 c 0.384006,-1.252817 1.283873,-2.855468 2.488462,-4.431895 1.794992,-2.349081 2.366538,-4.030169 2.415069,-7.103526 0.03388,-2.144699 -0.01646,-2.451341 -0.458542,-2.785603 -0.273121,-0.206586 -0.624757,-0.379166 -0.781356,-0.383507 -0.156622,-0.0044 -0.695416,1.052009 -1.197353,2.347453 -1.402937,3.620757 -1.836359,3.532733 -1.048199,-0.212878 0.504469,-2.39739 0.505519,-2.458806 0.04792,-2.7935 -1.344644,-0.983226 -1.864474,-0.108934 -2.643308,4.445647 -0.605905,3.543289 -0.544374,7.295017 0.160737,9.80041 0.439036,1.560016 0.769681,1.923396 1.016734,1.117399 z M 44.520661,38.326165 c 0,-0.458643 -3.33776,-6.017326 -4.457905,-7.424166 -1.075097,-1.350265 -4.560333,-4.673641 -4.901262,-4.673641 -0.41018,0 -2.111546,1.92561 -2.024575,2.291425 0.04709,0.197999 1.147117,1.285285 2.444544,2.416188 1.297418,1.130903 3.392194,3.188156 4.655047,4.571675 2.09059,2.290341 3.112483,3.093986 3.973762,3.125064 0.170711,0.0062 0.310389,-0.131784 0.310389,-0.306545 z m 5.711148,-8.897209 v -3.752112 l -0.888064,-1.896965 c -2.061411,-4.403339 -1.873243,-4.134532 -2.874076,-4.105703 -1.002673,0.02888 -2.693941,0.946802 -2.693941,1.462109 0,0.504131 5.967161,12.044782 6.22782,12.044782 0.128744,0 0.228259,-1.635954 0.228261,-3.752111 z m -16.201092,2.696789 c -0.122512,-0.371824 -2.107718,-1.924411 -2.46064,-1.924411 -0.326371,0 -1.699771,1.37898 -1.699771,1.706685 0,0.140263 0.642505,0.295337 1.427784,0.344613 0.785289,0.04928 1.744388,0.110724 2.13134,0.136546 0.466508,0.03112 0.669093,-0.05763 0.601287,-0.263433 z M 89.83742,23.77161 c 0.546291,-0.144552 1.3564,-0.265489 1.800253,-0.268751 0.443876,-0.0033 0.807016,-0.11466 0.807016,-0.247561 0,-0.236957 -3.42536,-2.326996 -4.769065,-2.909922 -0.89405,-0.387859 -0.993173,-0.159406 -0.558077,1.2863 0.198489,0.659591 0.360919,1.529398 0.360919,1.932906 0,0.805627 0.07265,0.812006 2.358954,0.207028 z M 69.283701,19.787399 c 1.225739,-1.368128 2.877118,-2.330741 4.904226,-2.858734 1.743863,-0.45422 1.854897,-0.541952 1.093308,-0.863896 -0.624902,-0.264167 -7.094815,-0.76359 -7.579914,-0.585105 -0.286189,0.105313 -0.624984,5.906224 -0.372922,6.385797 0.06674,0.126972 0.297902,-0.02512 0.51365,-0.337977 0.215767,-0.312858 0.864516,-1.095897 1.441652,-1.740085 z m -7.00881,0.956097 c 0.650338,-0.640361 0.740018,-0.894799 0.706215,-2.003436 -0.06558,-2.152249 -1.371279,-3.220639 -3.457522,-2.829259 -2.880284,0.540344 -3.187406,4.067792 -0.47674,5.475572 1.014536,0.526898 2.300069,0.270881 3.228038,-0.642877 z M 12.116066,70.929987 V 70.06655 L 10.502043,69.801555 C 8.5489944,69.480895 7.4504068,68.871898 6.8653863,67.785584 6.4456757,67.006228 6.4463176,66.671692 6.8801957,60.070498 7.1296458,56.275285 7.4309011,52.914411 7.5496519,52.601891 7.6684042,52.28938 8.0623686,51.758612 8.4251304,51.422414 c 0.5522509,-0.51181 0.9081951,-0.611263 2.1876666,-0.611263 1.699394,0 2.124047,-0.258151 2.124047,-1.291214 V 48.82466 h -1.902596 c -2.3745144,0 -3.7032749,0.673917 -4.7075256,2.38754 -0.619212,1.056608 -0.6956076,1.527904 -1.1359999,7.008189 -0.6131126,7.629635 -0.551168,9.54219 0.353307,10.908469 1.1335878,1.712363 3.4489145,2.795647 5.7787925,2.703745 0.960848,-0.03775 0.993244,-0.06737 0.993244,-0.902616 z m 111.307384,0.653061 c 1.90151,-0.493235 3.1674,-1.479767 3.94918,-3.077664 1.33907,-2.439622 0.32746,-5.916948 0.12209,-8.678013 -0.5989,-8.051978 -0.70318,-8.488849 -2.37719,-9.95865 -1.00788,-0.884929 -1.89269,-1.10588 -3.99291,-0.99708 -1.4767,0.07648 -1.48941,0.08362 -1.43744,0.801488 0.0684,0.946156 0.40607,1.129632 2.08681,1.134222 1.44788,0.0038 2.41657,0.494823 2.95246,1.496135 0.13557,0.25332 0.48288,3.648441 0.77177,7.544721 0.51359,6.926417 0.51497,7.101736 0.0623,7.874704 -0.70835,1.209612 -1.62284,1.748948 -3.48259,2.053883 -1.49002,0.244323 -1.70829,0.349206 -1.77998,0.855218 -0.1921,1.355858 0.61644,1.601875 3.12548,0.951036 z M 11.802762,61.382763 c -0.02594,-3.540731 -0.144635,-6.535121 -0.263718,-6.654207 -0.349792,-0.349787 -1.477732,0.308937 -1.7447428,1.018947 -0.134581,0.357859 -0.3701632,2.38261 -0.5235234,4.499471 -0.1533602,2.116847 -0.3431173,4.478355 -0.4216898,5.24779 -0.124054,1.214878 -0.071918,1.469908 0.3961975,1.938018 0.4147977,0.414788 0.7771125,0.521611 1.5718615,0.463381 l 1.032814,-0.07565 z m 111.058748,6.403823 c 0.22646,-0.08693 0.50133,-0.394218 0.61076,-0.682852 0.30303,-0.799393 -0.66037,-11.053406 -1.10182,-11.727154 -0.40898,-0.624186 -1.31088,-0.999191 -1.63164,-0.678431 -0.15623,0.15625 -0.34906,10.260773 -0.24684,12.936074 0.0126,0.330572 1.63347,0.434825 2.36953,0.152363 z"
       id="path1"
       sodipodi:nodetypes="scsssssssscsssssssscsssscsscscssssssssssssssssssscssscscssscsssssscsccsssssssscsscsssscsscccsscccsccscscsccccsscssscssssccccssssssssscsssssccssssscssssssscscccsscssscsssccscsssssssccscsssssscccscssscsccssssccsscsscccssccsscssssccccccscscccsscscccsscssscsscscssscsssssscsssscsssscscssssscccssccsssscccssssccsssscsscssscccsscscsssssscccsssssssssssscssssssssscsssscscsssscccccsccssscsccccssssscssscsscccsssscsssssccccscsscsssccsssccssssccsssssssscccsccssccsssssscssccccscccccsssssssssccsccssscssssssscssscssssscsccccscssccssscsscsscsssssssssssscsscssssscscsscssssscssssssscsssscssssssccsscsscscssssscccscsscss"
       inkscape:label="outline" /></g></svg>
