<?xml version="1.0" encoding="UTF-8" standalone="no"?>
<!-- Created with Inkscape (http://www.inkscape.org/) -->

<svg
   version="1.1"
   id="svg1"
   width="204.00052"
   height="299.99997"
   viewBox="0 0 204.00051 299.99997"
   sodipodi:docname="Card Back.svg"
   inkscape:version="1.4 (e7c3feb100, 2024-10-09)"
   xmlns:inkscape="http://www.inkscape.org/namespaces/inkscape"
   xmlns:sodipodi="http://sodipodi.sourceforge.net/DTD/sodipodi-0.dtd"
   xmlns="http://www.w3.org/2000/svg"
   xmlns:svg="http://www.w3.org/2000/svg">
  <defs
     id="defs1" />
  <sodipodi:namedview
     id="namedview1"
     pagecolor="#ffffff"
     bordercolor="#666666"
     borderopacity="1.0"
     inkscape:showpageshadow="2"
     inkscape:pageopacity="0.0"
     inkscape:pagecheckerboard="0"
     inkscape:deskcolor="#d1d1d1"
     inkscape:zoom="0.58823529"
     inkscape:cx="-47.6"
     inkscape:cy="402.9"
     inkscape:window-width="1320"
     inkscape:window-height="1408"
     inkscape:window-x="0"
     inkscape:window-y="0"
     inkscape:window-maximized="1"
     inkscape:current-layer="g1">
    <inkscape:page
       x="-2.6831339e-14"
       y="0"
       width="204.00052"
       height="299.99997"
       id="page2"
       margin="0"
       bleed="0" />
  </sodipodi:namedview>
  <g
     id="g1"
     inkscape:groupmode="layer"
     inkscape:label="1"
     transform="translate(-48.242128,-48.000019)">
    <path
       id="path2"
       d="M 189.182,560.7 V 366.3 c 0,-8.444 -6.856,-15.3 -15.3,-15.3 H 51.4816 c -8.4443,0 -15.3,6.856 -15.3,15.3 v 194.4 c 0,8.444 6.8557,15.3 15.3,15.3 H 173.882 c 8.444,0 15.3,-6.856 15.3,-15.3 z"
       style="fill:#95b569;fill-opacity:1;fill-rule:evenodd;stroke:none"
       transform="matrix(1.3333333,0,0,-1.3333333,0,816)" />
    <path
       id="path3"
       d="m 77.2187,469.85 c 2.6946,0 4.8824,-2.188 4.8824,-4.883 0,-2.694 -2.1878,-4.882 -4.8824,-4.882 -2.6946,0 -4.8823,2.188 -4.8823,4.882 0,2.695 2.1877,4.883 4.8823,4.883 z"
       style="fill:#516c3b;fill-opacity:1;fill-rule:evenodd;stroke:none"
       transform="matrix(1.3333333,0,0,-1.3333333,0,816)" />
    <path
       id="path4"
       d="m 148.145,469.85 c 2.694,0 4.882,-2.188 4.882,-4.883 0,-2.694 -2.188,-4.882 -4.882,-4.882 -2.695,0 -4.883,2.188 -4.883,4.882 0,2.695 2.188,4.883 4.883,4.883 z"
       style="fill:#516c3b;fill-opacity:1;fill-rule:evenodd;stroke:none"
       transform="matrix(1.3333333,0,0,-1.3333333,0,816)" />
    <path
       id="path5"
       d="m 53.186,549.281 c 0.2619,-1.293 0.5932,-2.578 0.7699,-3.887 0.4465,-3.308 0.4671,-6.662 0.2844,-9.989 -0.2046,-3.727 -1.1542,-7.819 -0.0228,-11.483 0.6925,-2.242 2.8291,-3.397 5.0601,-2.593 2.4397,0.879 4.6166,2.716 5.4733,5.202 1.1735,3.406 0.4425,7.749 -1.269,10.834 -0.7805,1.406 -1.7046,2.754 -2.2559,4.276 -0.1215,0.335 -0.2256,0.678 -0.3049,1.026 -0.0058,0.025 -0.0769,0.304 -0.0551,0.314 0.4474,0.218 1.3941,-0.197 1.8042,-0.352 1.5347,-0.577 2.9263,-1.477 4.4713,-2.021 0.9449,-0.333 1.9284,-0.473 2.9044,-0.677 3.2264,-0.673 6.5168,-0.853 9.6794,0.288 1.8744,0.675 3.8027,1.88 4.6875,3.74 1.3268,2.79 -0.3401,6.283 -3.3765,6.884 -3.0564,0.605 -6.1532,-0.365 -9.1906,-0.652 -3.5638,-0.338 -7.174,-0.694 -10.7489,-0.855 -1.9818,-0.089 -3.9628,-0.011 -5.9451,-0.024"
       style="fill:#516c3b;fill-opacity:1;fill-rule:evenodd;stroke:none"
       transform="matrix(1.3333333,0,0,-1.3333333,0,816)" />
    <path
       id="path6"
       d="m 171.138,550.653 c -1.934,-0.112 -3.767,-0.703 -5.668,-1.022 -2.72,-0.457 -5.505,-0.61 -8.255,-0.378 -1.63,0.138 -3.226,0.43 -4.802,0.865 -2.368,0.653 -4.923,1.535 -7.401,0.975 -0.67,-0.151 -1.314,-0.378 -1.875,-0.784 -2.101,-1.522 -1.97,-4.881 -0.542,-6.844 0.571,-0.787 1.397,-1.35 2.279,-1.739 4.225,-1.863 9.038,0.152 13.21,1.189 1.242,0.308 2.451,0.721 3.683,1.059 0.203,0.056 1.024,0.388 1.207,0.196 0.375,-0.395 0.336,-1.056 0.281,-1.551 -0.149,-1.319 -0.65,-2.589 -1.158,-3.804 -0.456,-1.09 -1.067,-2.106 -1.514,-3.198 -1.19,-2.912 -1.946,-6.427 -0.873,-9.483 1.093,-3.115 4.118,-4.696 7.087,-5.598 0.682,-0.208 1.409,-0.378 2.125,-0.285 1.454,0.19 2.655,1.454 3,2.843 0.736,2.963 -1.242,5.357 -2.579,7.782 -0.668,1.21 -1.147,2.481 -1.316,3.859 -0.362,2.955 0.764,5.907 1.597,8.694 0.576,1.927 0.957,3.999 1.051,6.011"
       style="fill:#516c3b;fill-opacity:1;fill-rule:evenodd;stroke:none"
       transform="matrix(1.3333333,0,0,-1.3333333,0,816)" />
    <path
       id="path7"
       d="m 174.79,379.528 c -1.052,1.901 -2.162,3.739 -2.733,5.863 -0.704,2.615 -0.603,5.463 -0.472,8.141 0.113,2.28 0.288,4.556 0.442,6.834 0.134,1.987 0.265,4.285 -0.502,6.173 -0.975,2.4 -3.984,2.779 -6.073,1.612 -2.866,-1.601 -4.302,-4.239 -4.767,-7.436 -0.54,-3.717 0.107,-7.678 1.769,-11.058 0.67,-1.365 1.706,-2.518 2.363,-3.881 0.163,-0.338 0.329,-0.703 0.402,-1.074 0.008,-0.037 0.07,-0.292 0.031,-0.312 -0.708,-0.372 -1.593,-0.114 -2.313,0.076 -1.903,0.503 -3.541,1.6 -5.385,2.253 -3.16,1.119 -6.427,0.919 -9.505,-0.316 -1.33,-0.533 -2.691,-1.179 -3.392,-2.496 -0.942,-1.772 -0.61,-4.102 -0.169,-5.973 0.077,-0.325 0.189,-0.637 0.339,-0.935 0.776,-1.55 2.255,-1.387 3.629,-0.725 2.8,1.347 5.576,3.269 8.826,3.162 1.059,-0.034 2.218,-0.203 3.199,-0.615 0.885,-0.371 1.752,-0.81 2.626,-1.208 0.904,-0.412 1.785,-0.862 2.736,-1.158 3.317,-1.031 7.984,-0.745 9.106,3.157"
       style="fill:#516c3b;fill-opacity:1;fill-rule:evenodd;stroke:none"
       transform="matrix(1.3333333,0,0,-1.3333333,0,816)" />
    <path
       id="path8"
       d="m 53.4443,378.085 c 0.7748,3.303 1.8701,6.706 1.1937,10.123 -0.2633,1.329 -0.5678,2.707 -0.9962,3.993 -1.0805,3.245 -2.5424,6.717 -1.682,10.207 0.6494,2.633 2.8722,4.695 5.6445,3.727 0.5019,-0.175 1.0066,-0.358 1.4573,-0.645 1.8373,-1.168 2.9891,-3.208 3.4713,-5.278 0.8786,-3.772 0.3322,-7.198 -0.9615,-10.798 -0.411,-1.144 -0.8748,-2.275 -1.2621,-3.426 -0.0873,-0.259 -0.3824,-0.934 -0.1754,-1.216 0.4409,-0.601 1.5871,-0.28 2.1471,-0.092 1.8241,0.613 3.2122,2.053 4.9027,2.914 4.3846,2.236 10.0483,1.173 14.0906,-1.313 2.3767,-1.462 4.3133,-3.526 3.9035,-6.548 -0.1373,-1.013 -0.5713,-1.917 -1.2127,-2.703 -0.488,-0.598 -1.0197,-1.132 -1.6869,-1.528 -0.5047,-0.299 -1.0597,-0.519 -1.6297,-0.657 -4.6418,-1.129 -7.3853,4.363 -11.7943,4.309 -1.2514,-0.015 -2.503,-0.414 -3.7212,-0.664 -1.9594,-0.402 -3.9476,-0.67 -5.9294,-0.933 -1.7012,-0.226 -3.4161,-0.498 -5.114,-0.128"
       style="fill:#516c3b;fill-opacity:1;fill-rule:evenodd;stroke:none"
       transform="matrix(1.3333333,0,0,-1.3333333,0,816)" />
    <path
       id="path9"
       d="m 113.739,428.169 c 2.711,-1.999 5.318,-4.533 7.28,-7.277 1.304,-1.822 2.007,-3.745 2.416,-5.939 0.425,-2.28 0.591,-4.795 -0.316,-6.983 -2.368,-5.714 -9.157,-8.692 -14.743,-5.541 -2.315,1.307 -4.099,3.639 -5.076,6.079 -0.768,1.918 -1.278,4.027 -1.209,6.1 0.084,2.528 1.106,4.891 2.517,6.953 1.663,2.428 4.152,4.61 6.933,5.692"
       style="fill:#516c3b;fill-opacity:1;fill-rule:evenodd;stroke:none"
       transform="matrix(1.3333333,0,0,-1.3333333,0,816)" />
    <path
       id="path10"
       d="m 112.428,502.021 c 2.717,2.229 5.529,4.233 7.649,7.089 0.761,1.027 1.525,2.054 1.89,3.296 1.167,3.968 -0.111,8.177 -2.612,11.336 -1.791,2.261 -4.177,3.735 -7.149,3.114 -2.519,-0.526 -5.571,-1.74 -7.336,-3.69 -1.889,-2.085 -2.433,-4.692 -2.327,-7.431 0.197,-5.068 2.932,-10.013 7.275,-12.736 0.762,-0.478 1.627,-0.593 2.457,-0.898"
       style="fill:#516c3b;fill-opacity:1;fill-rule:evenodd;stroke:none"
       transform="matrix(1.3333333,0,0,-1.3333333,0,816)" />
    <path
       id="path11"
       d="m 113.513,472.929 c 0.889,2.19 1.718,4.339 2.81,6.439 2.411,4.637 5.446,8.809 9.304,12.344 2.805,2.569 5.678,5.322 9.773,4.951 1.24,-0.113 2.499,-0.418 3.681,-0.8 1.625,-0.525 3.105,-1.266 4.283,-2.529 4.356,-4.669 3.846,-13.419 -0.434,-17.946 -2.596,-2.746 -6.317,-4.208 -9.815,-5.4 -2.56,-0.872 -5.047,-1.908 -7.51,-3.022 -0.725,-0.327 -2.113,-0.81 -2.128,-1.754 -0.017,-1.011 1.213,-1.673 1.979,-2.054 2.144,-1.064 4.456,-1.659 6.607,-2.684 3.479,-1.657 6.679,-4.065 9.533,-6.627 1.73,-1.554 3.529,-3.573 4.207,-5.852 0.584,-1.962 0.151,-4.239 -0.097,-6.232 -0.382,-3.067 -1.486,-6.106 -4.372,-7.649 -1.976,-1.056 -4.035,-0.082 -6.038,0.221 -2.913,0.441 -5.791,0.926 -8.415,2.369 -3.016,1.66 -5.434,4.372 -7.544,7.026 -1.5,1.886 -2.927,3.87 -4.168,5.936 -0.486,0.81 -0.749,2.091 -1.868,1.805 -2.89,-0.74 -4.292,-4.656 -5.917,-6.794 -1.346,-1.771 -2.431,-3.711 -3.865,-5.419 -0.795,-0.946 -1.651,-1.872 -2.591,-2.676 -4.7819,-4.093 -12.8606,-8.105 -18.651,-3.54 -2.0731,1.634 -3.0455,4.313 -3.5888,6.826 -0.3733,1.727 -0.711,3.476 -0.6144,5.251 0.0776,1.426 0.3045,2.861 0.7548,4.219 1.8727,5.645 7.0506,8.854 11.9267,11.7 2.3498,1.372 4.7039,2.376 7.2789,3.21 0.5797,0.187 1.1665,0.398 1.7248,0.642 0.1452,0.064 0.498,0.183 0.514,0.365 0.156,1.776 -2.1375,2.5 -3.3515,3.183 -1.4415,0.811 -2.6457,2.024 -3.9399,3.043 -5.8015,4.569 -11.3442,11.079 -10.6982,18.953 0.226,2.754 1.504,6.428 3.9888,7.977 1.2546,0.781 2.7903,0.913 4.2357,0.938 3.6969,0.063 6.7141,-0.992 9.4565,-3.461 4.1646,-3.75 7.3736,-8.112 9.7246,-13.205 1.472,-3.19 2.387,-6.616 4.04,-9.716 0.02,-0.038 -0.216,-0.038 -0.216,-0.038 z"
       style="fill:#516c3b;fill-opacity:1;fill-rule:evenodd;stroke:none"
       transform="matrix(1.3333333,0,0,-1.3333333,0,816)" />
    <path
       id="path12"
       d="m 89.3766,524.1 c 4.5717,-3.809 5.0081,-9.105 1.034,-13.512 -4.9516,-5.491 -11.9538,-8.226 -17.3205,-13.28 -9.5411,-8.984 -12.3759,-22.085 -11.9422,-34.779 0.4203,-12.302 3.2821,-25.436 13.359,-33.605 3.5046,-2.841 7.154,-5.953 11.1059,-8.15 2.1586,-1.2 5.7119,-1.967 7.079,-4.143 1.93,-3.073 0.5243,-7.801 -1.4521,-10.535 -1.2236,-1.693 -3.8296,-2.633 -5.778,-1.647 -2.9754,1.504 -2.8241,4.311 -3.3768,7.07 -0.3756,1.875 -1.2036,3.718 -2.5146,5.121 -2.7891,2.984 -6.0792,5.494 -8.7506,8.594 -4.3019,4.991 -7.9505,11.337 -10.4882,17.41 -2.3766,5.688 -2.7045,12.243 -2.8437,18.339 -0.2181,9.546 0.3678,19.822 4.1906,28.705 1.2634,2.935 3.1247,5.567 4.9198,8.192 1.7287,2.528 3.5187,5.085 5.7085,7.242 3.1621,3.115 6.9001,5.887 9.4771,9.547 1.7352,2.465 1.1724,5.924 2.7662,8.449 1.0613,1.68 2.9355,1.283 4.6284,0.972 0.039,-0.007 0.1982,0.01 0.1982,0.01 z"
       style="fill:#516c3b;fill-opacity:1;fill-rule:evenodd;stroke:none"
       transform="matrix(1.3333333,0,0,-1.3333333,0,816)" />
    <path
       id="path13"
       d="m 132.907,521.335 c -0.382,-1.333 -0.628,-2.665 -0.75,-4.047 -0.095,-1.08 -0.144,-2.169 0.02,-3.244 0.843,-5.559 6.343,-5.791 10.311,-8.164 3.337,-1.995 6.135,-4.682 8.586,-7.687 4.452,-5.459 7.944,-12.241 9.566,-19.1 0.758,-3.205 0.947,-6.502 1.291,-9.767 0.396,-3.76 0.928,-7.836 0.589,-11.617 -0.759,-8.465 -3.386,-17.368 -8.463,-24.286 -2.166,-2.952 -5.036,-5.379 -7.682,-7.879 -2.484,-2.346 -5.337,-4.532 -8.13,-6.497 -1.76,-1.239 -3.842,-2.288 -5.194,-4.008 -2.22,-2.826 -1.651,-10.7 3.15,-10.493 2.308,0.099 3.773,2.372 4.782,4.177 2.384,4.268 4.274,8.551 7.377,12.395 4.005,4.961 8.52,9.55 11.642,15.168 6.354,11.436 8.12,24.34 7.097,37.21 -0.565,7.112 -2.044,14.453 -6.416,20.289 -3.17,4.231 -6.839,8.073 -10.473,11.904 -1.654,1.743 -3.528,3.373 -5.003,5.274 -1.425,1.835 -2.828,3.904 -3.823,6.013 -0.713,1.509 -1.106,3.25 -2.113,4.605 -1.629,2.194 -5.112,3.215 -6.336,0.161 -0.031,-0.076 -0.028,-0.407 -0.028,-0.407 z"
       style="fill:#516c3b;fill-opacity:1;fill-rule:evenodd;stroke:none"
       transform="matrix(1.3333333,0,0,-1.3333333,0,816)" />
  </g>
</svg>
